<?xml version="1.0" encoding="UTF-8"?>
<svg version="1.1" xmlns="http://www.w3.org/2000/svg" width="512" height="512">
<path d="M0 0 C0.8401371 -0.0060911 1.6802742 -0.01218221 2.54587001 -0.01845789 C5.34775115 -0.03504395 8.14917564 -0.03031836 10.95109558 -0.0255127 C12.96543854 -0.03285563 14.97977729 -0.04144251 16.99411011 -0.05117798 C22.45704005 -0.07338038 27.91981908 -0.07632524 33.38278794 -0.07443047 C37.94775818 -0.07431069 42.51269653 -0.08287774 47.07765788 -0.09120798 C57.85059629 -0.11043793 68.62345721 -0.11332753 79.39640808 -0.10656738 C90.49877613 -0.0999285 101.60081178 -0.12278593 112.70311242 -0.15988111 C122.24475161 -0.19060148 131.786284 -0.20193554 141.32797164 -0.1980443 C147.02249933 -0.19597903 152.71676842 -0.20142184 158.41124916 -0.22593689 C163.76875582 -0.24823954 169.12572313 -0.2462966 174.4832325 -0.22600937 C176.44474966 -0.22260545 178.40630338 -0.22766164 180.36777115 -0.24199295 C200.96166315 -0.38202747 200.96166315 -0.38202747 209.7096405 7.46057129 C216.07342011 16.67479385 220.90007098 26.73836411 225.83512878 36.7677002 C227.4189995 39.98544563 229.0181414 43.19525025 230.61979675 46.4041748 C231.63240121 48.44344879 232.64415192 50.48314697 233.654953 52.52331543 C234.13295349 53.48467911 234.61095398 54.44604279 235.10343933 55.4365387 C235.53809509 56.32183762 235.97275085 57.20713654 236.420578 58.1192627 C236.80504089 58.89882828 237.18950378 59.67839386 237.58561707 60.48158264 C238.404953 62.39440918 238.404953 62.39440918 238.404953 64.39440918 C239.47704765 64.38441643 239.47704765 64.38441643 240.57080078 64.3742218 C247.35146487 64.31376997 254.13208796 64.26826319 260.91295338 64.23897266 C264.39795366 64.22340711 267.88272875 64.2023389 271.36759949 64.16809082 C275.38658136 64.128847 279.40533173 64.11462485 283.42448425 64.10144043 C284.65826309 64.08595657 285.89204193 64.07047272 287.16320801 64.05451965 C304.1338687 64.0512619 320.11801179 70.35975691 332.4440155 82.1151123 C345.22273227 95.05356303 350.72986227 111.1511182 350.66564941 128.95663452 C350.66947496 130.09179068 350.67330051 131.22694683 350.67724198 132.39650166 C350.68752717 136.18475157 350.6835883 139.97284864 350.67961121 143.7611084 C350.68286811 146.48347408 350.68907978 149.20583136 350.69509888 151.92819214 C350.7078212 158.54610834 350.70964266 165.16398392 350.70729861 171.78191029 C350.70551254 177.16347095 350.70727128 182.54501932 350.71152306 187.92657852 C350.71211825 188.69373359 350.71271343 189.46088865 350.71332666 190.25129084 C350.71453846 191.80997999 350.7157526 193.36866914 350.71696904 194.92735828 C350.72783505 209.5311562 350.72568652 224.134931 350.71958419 238.73873021 C350.71441577 252.0841331 350.72567016 265.42946298 350.74468241 278.77485143 C350.76407749 292.49467693 350.77231389 306.21446792 350.76855916 319.93430722 C350.76664966 327.63022905 350.76911013 335.32608875 350.7832737 343.02199936 C350.79520978 349.57360414 350.79656749 356.12510854 350.78448353 362.67671476 C350.77861036 366.01588663 350.77909106 369.35472533 350.78948593 372.69390869 C350.79996435 376.32218012 350.79184322 379.94996244 350.7791748 383.57821655 C350.78654909 384.62171985 350.79392337 385.66522314 350.80152112 386.74034774 C350.67747404 403.69071209 343.28149759 419.96705419 331.26042175 431.83972168 C316.41813353 445.11859514 300.30234111 448.70453758 280.98335266 448.65510559 C279.30875411 448.65812866 277.63415693 448.66201892 275.95956218 448.66669816 C271.3720702 448.67696683 266.78465647 448.67479921 262.1971581 448.67051756 C257.24408583 448.6680483 252.2910323 448.67706699 247.33796692 448.68455505 C237.63993006 448.69729839 227.94192089 448.69909621 218.24387707 448.69675479 C210.36041051 448.6949711 202.47695234 448.69672236 194.59348679 448.70097923 C192.90988483 448.70187202 192.90988483 448.70187202 191.19227072 448.70278284 C188.91204557 448.7039946 186.63182042 448.70520873 184.35159527 448.70642521 C162.97210386 448.7172993 141.59262824 448.71513885 120.21313594 448.70904037 C100.65987692 448.70387106 81.10666771 448.71512727 61.55341853 448.73413859 C41.46936538 448.7535161 21.38533579 448.76177315 1.30127323 448.75801533 C-9.97168754 448.7561032 -21.24460591 448.75859215 -32.51755905 448.77272987 C-42.11409051 448.78464349 -51.71055346 448.78604872 -61.30708586 448.77393971 C-66.20159971 448.76805099 -71.09598826 448.76695146 -75.99049377 448.77894211 C-80.47498204 448.78980047 -84.95924035 448.78669806 -89.44371785 448.77268042 C-91.06207249 448.77003339 -92.68044515 448.77240024 -94.2987821 448.78041629 C-112.96548299 448.8664265 -129.88993139 443.78157962 -143.6341095 430.67370605 C-156.41282626 417.73525533 -161.91995627 401.63770016 -161.85574341 383.83218384 C-161.85956896 382.69702768 -161.8633945 381.56187153 -161.86733598 380.3923167 C-161.87762116 376.60406679 -161.87368229 372.81596972 -161.8697052 369.02770996 C-161.8729621 366.30534428 -161.87917378 363.582987 -161.88519287 360.86062622 C-161.8979152 354.24271002 -161.89973665 347.62483444 -161.89739261 341.00690807 C-161.89560654 335.62534741 -161.89736528 330.24379903 -161.90161705 324.86223984 C-161.90221224 324.09508477 -161.90280743 323.32792971 -161.90342065 322.53752752 C-161.90463246 320.97883837 -161.90584659 319.42014922 -161.90706303 317.86146007 C-161.91792905 303.25766216 -161.91578051 288.65388736 -161.90967818 274.05008815 C-161.90450976 260.70468526 -161.91576416 247.35935538 -161.9347764 234.01396693 C-161.95417149 220.29414143 -161.96240788 206.57435044 -161.95865315 192.85451114 C-161.95674365 185.15858931 -161.95920412 177.46272961 -161.97336769 169.766819 C-161.98530377 163.21521422 -161.98666148 156.66370982 -161.97457752 150.1121036 C-161.96870435 146.77293173 -161.96918506 143.43409303 -161.97957993 140.09490967 C-161.99005834 136.46663824 -161.98193721 132.83885592 -161.9692688 129.21060181 C-161.97664308 128.16709851 -161.98401737 127.12359522 -161.99161512 126.04847062 C-161.86756803 109.09810627 -154.47159158 92.82176417 -142.45051575 80.94909668 C-128.54854374 68.51149108 -113.08357824 64.04747606 -94.80989075 64.19909668 C-93.51305862 64.20192657 -92.2162265 64.20475647 -90.88009644 64.20767212 C-87.46228571 64.21524297 -84.04464984 64.23483359 -80.62690735 64.25708008 C-77.12737899 64.27768114 -73.62782188 64.28670407 -70.12825012 64.29675293 C-63.28377807 64.31808696 -56.43942097 64.35214191 -49.595047 64.39440918 C-49.24409973 63.21334595 -49.24409973 63.21334595 -48.88606262 62.00842285 C-46.13634331 54.31097674 -42.21607778 47.06404992 -38.59407043 39.74719238 C-37.60106528 37.73320326 -36.61592103 35.71531766 -35.63899231 33.69348145 C-22.15889172 5.80007763 -22.15889172 5.80007763 -10.59490454 1.0211525 C-7.08662051 -0.0783226 -3.65001039 -0.02511478 0 0 Z M-1.94929504 39.74938965 C-6.59863741 44.95116905 -9.87572467 50.73469049 -13.220047 56.83190918 C-13.81962219 57.91415771 -14.41919739 58.99640625 -15.03694153 60.1114502 C-19.33728864 67.93957613 -23.46105329 75.85096337 -27.470047 83.83190918 C-27.98776672 84.86178955 -28.50548645 85.89166992 -29.03889465 86.95275879 C-31.57679538 91.47056462 -31.57679538 91.47056462 -32.595047 96.39440918 C-33.78322525 96.38774734 -33.78322525 96.38774734 -34.9954071 96.38095093 C-42.49751842 96.34070766 -49.99957663 96.31034069 -57.50176811 96.29078484 C-61.3577781 96.28039268 -65.21369813 96.26631805 -69.06965637 96.24353027 C-72.79792782 96.22163753 -76.5261133 96.20980629 -80.25444412 96.20465469 C-81.66964698 96.20098819 -83.08484567 96.19382932 -84.50001144 96.18294907 C-98.68951084 96.07829503 -111.01973023 97.05409945 -121.595047 107.39440918 C-128.84112288 117.08929742 -129.74758052 127.11258079 -129.72875977 138.88764954 C-129.73102532 139.93196426 -129.73329088 140.97627898 -129.73562509 142.0522396 C-129.74194565 145.54496954 -129.74113697 149.03766049 -129.74031067 152.53039551 C-129.74330336 155.03733877 -129.74670615 157.54428156 -129.75048828 160.05122375 C-129.75840391 166.15037015 -129.76154244 172.2495023 -129.76210066 178.34865335 C-129.76257652 183.30835643 -129.76463476 188.26805633 -129.76780128 193.22775841 C-129.77660367 207.30215362 -129.7812213 221.37654123 -129.78047081 235.45093922 C-129.78043085 236.20902503 -129.7803909 236.96711084 -129.78034973 237.74816895 C-129.78030885 238.50718471 -129.78026797 239.26620048 -129.78022585 240.04821672 C-129.77981947 252.34682905 -129.7893881 264.64541076 -129.8034881 276.94401423 C-129.81786536 289.58460502 -129.82475754 302.22518088 -129.82389432 314.86578006 C-129.82356283 321.95750293 -129.82628917 329.0491937 -129.83707237 336.14090919 C-129.84715059 342.8115022 -129.84682824 349.48201624 -129.83955574 356.1526165 C-129.83851069 358.59789758 -129.84086807 361.0431829 -129.8469162 363.48845673 C-129.85465016 366.8324565 -129.84998185 370.17622303 -129.84228516 373.5202179 C-129.84742872 374.48239741 -129.85257228 375.44457692 -129.85787171 376.43591338 C-129.79559461 388.72319079 -127.40093825 399.38838403 -118.595047 408.39440918 C-110.06040907 414.77330005 -101.32665899 416.51662093 -90.764575 416.52304363 C-89.78445034 416.52567319 -89.78445034 416.52567319 -88.78452519 416.52835587 C-86.60380579 416.53299291 -84.42315374 416.53055632 -82.24243164 416.52812195 C-80.65959329 416.52999108 -79.0767554 416.53229219 -77.49391824 416.53498727 C-73.1508302 416.54109905 -68.80776142 416.54097241 -64.46467006 416.5397929 C-59.77812013 416.53958873 -55.09157636 416.54510912 -50.4050293 416.54985046 C-41.2257612 416.55815407 -32.04649953 416.56090517 -22.86722799 416.56146284 C-15.40561803 416.56193812 -7.94401019 416.56399346 -0.48240089 416.56716347 C20.67519742 416.5759691 41.83279066 416.58058296 62.99039081 416.57983299 C64.70102268 416.57977306 64.70102268 416.57977306 66.44621277 416.57971191 C67.58802723 416.57967103 68.72984168 416.57963015 69.90625658 416.57958803 C88.41272989 416.57918154 106.91918285 416.58875203 125.42565028 416.60285028 C144.43047018 416.61721389 163.43528015 416.62412048 182.44010562 416.6232565 C193.10887078 416.62292454 203.77761462 416.62567146 214.44637489 416.63643456 C223.52950321 416.64553932 232.61260053 416.64771497 241.69573144 416.64092513 C246.32882528 416.63765988 250.96185963 416.63760349 255.59494781 416.64627838 C259.83948156 416.65414394 264.08390865 416.65271135 268.32843979 416.64399425 C269.8607003 416.6424594 271.39296876 416.64427487 272.92521987 416.64985432 C287.19125534 416.69834506 299.73763436 415.82467629 310.404953 405.39440918 C317.65102889 395.69952094 318.55748652 385.67623757 318.53866577 373.90116882 C318.54093133 372.8568541 318.54319688 371.81253938 318.54553109 370.73657876 C318.55185166 367.24384882 318.55104298 363.75115787 318.55021667 360.25842285 C318.55320937 357.75147959 318.55661215 355.2445368 318.56039429 352.7375946 C318.56830991 346.63844821 318.57144845 340.53931605 318.57200667 334.44016501 C318.57248253 329.48046193 318.57454077 324.52076203 318.57770729 319.56105995 C318.58650967 305.48666474 318.5911273 291.41227713 318.59037682 277.33787914 C318.59033686 276.57979333 318.5902969 275.82170752 318.59025574 275.04064941 C318.59021486 274.28163365 318.59017398 273.52261788 318.59013186 272.74060164 C318.58972548 260.44198931 318.5992941 248.1434076 318.6133941 235.84480413 C318.62777137 223.20421334 318.63466355 210.56363748 318.63380033 197.9230383 C318.63346883 190.83131543 318.63619517 183.73962466 318.64697838 176.64790916 C318.6570566 169.97731616 318.65673424 163.30680212 318.64946175 156.63620186 C318.64841669 154.19092078 318.65077408 151.74563546 318.6568222 149.30036163 C318.66455617 145.95636186 318.65988786 142.61259533 318.65219116 139.26860046 C318.65990651 137.8253312 318.65990651 137.8253312 318.66777772 136.35290498 C318.60550062 124.06562757 316.21084426 113.40043433 307.404953 104.39440918 C298.89584585 98.03460032 290.17955531 96.26034563 279.64347839 96.28088379 C277.69224815 96.28099709 277.69224815 96.28099709 275.70159912 96.28111267 C274.30193543 96.28621777 272.90227214 96.29143374 271.50260925 96.29675293 C270.05529835 96.29862052 268.60798681 96.30004281 267.16067505 96.30104065 C263.3713554 96.304839 259.58207474 96.31464608 255.79277039 96.32574463 C251.91806058 96.33601671 248.04334441 96.34055064 244.16862488 96.34558105 C236.58071658 96.35627102 228.99284028 96.37331484 221.404953 96.39440918 C220.94751457 94.99352051 220.94751457 94.99352051 220.48083496 93.56433105 C215.59953127 79.18231522 207.16815991 65.32178215 199.592453 52.20690918 C199.09060486 51.31810059 198.58875671 50.42929199 198.07170105 49.5135498 C194.06147421 42.7251026 188.93231979 36.39112963 181.404953 33.39440918 C176.74764125 32.6015185 172.26980787 32.2675055 167.54951477 32.26069641 C166.89651551 32.25843085 166.24351625 32.2561653 165.57072914 32.25383109 C163.40233349 32.2475466 161.23400123 32.24831685 159.06559753 32.24914551 C157.50283224 32.24615057 155.94006768 32.24274727 154.37730408 32.2389679 C150.14584032 32.2301584 145.91439679 32.22779109 141.68292475 32.22715211 C139.03599368 32.22643995 136.38906771 32.22430251 133.74213791 32.22165489 C124.4987175 32.21241205 115.25531148 32.20831874 106.0118866 32.20910645 C97.41010562 32.20970717 88.80838736 32.19915358 80.20662224 32.18336278 C72.80852182 32.17026795 65.41044185 32.16492335 58.01232994 32.16556185 C53.59950227 32.16581624 49.1867304 32.16299781 44.77391434 32.1523838 C40.62227442 32.14266989 36.47074328 32.14264613 32.31909943 32.14990044 C30.80061814 32.15094214 29.28212995 32.14860811 27.76366043 32.14253998 C11.60037309 31.83798605 11.60037309 31.83798605 -1.94929504 39.74938965 Z " fill="#000000" transform="translate(161.5950469970703,31.6055908203125)"/>
<path d="M0 0 C1.01247803 0.27408691 1.01247803 0.27408691 2.04541016 0.55371094 C32.31829414 8.88268602 61.01342228 28.59651721 77 56 C77.40943848 56.69963867 77.81887695 57.39927734 78.24072266 58.12011719 C84.66997596 69.30121891 89.58876157 80.56227976 93 93 C93.50853516 94.76150391 93.50853516 94.76150391 94.02734375 96.55859375 C98.38980524 114.9130976 98.21629674 138.90223765 93 157 C92.81727539 157.67498535 92.63455078 158.3499707 92.44628906 159.04541016 C84.11731398 189.31829414 64.40348279 218.01342228 37 234 C36.30036133 234.40943848 35.60072266 234.81887695 34.87988281 235.24072266 C23.69878109 241.66997596 12.43772024 246.58876157 0 250 C-1.17433594 250.33902344 -2.34867188 250.67804688 -3.55859375 251.02734375 C-21.9130976 255.38980524 -45.90223765 255.21629674 -64 250 C-64.67498535 249.81727539 -65.3499707 249.63455078 -66.04541016 249.44628906 C-96.31829414 241.11731398 -125.01342228 221.40348279 -141 194 C-141.40943848 193.30036133 -141.81887695 192.60072266 -142.24072266 191.87988281 C-148.66997596 180.69878109 -153.58876157 169.43772024 -157 157 C-157.33902344 155.82566406 -157.67804688 154.65132812 -158.02734375 153.44140625 C-162.38980524 135.0869024 -162.21629674 111.09776235 -157 93 C-156.72591309 91.98752197 -156.72591309 91.98752197 -156.44628906 90.95458984 C-148.11731398 60.68170586 -128.40348279 31.98657772 -101 16 C-99.95054199 15.38584229 -99.95054199 15.38584229 -98.87988281 14.75927734 C-87.69878109 8.33002404 -76.43772024 3.41123843 -64 0 C-62.82566406 -0.33902344 -61.65132813 -0.67804688 -60.44140625 -1.02734375 C-42.0869024 -5.38980524 -18.09776235 -5.21629674 0 0 Z M-106 64 C-123.68506161 85.67963404 -128.56841683 110.59859005 -127 138 C-124.08771684 162.66901588 -109.7010171 185.37622223 -90.66796875 200.90234375 C-68.61703226 217.02914805 -43.45701959 222.88725609 -16.31982422 219.68359375 C8.03423045 215.57724199 31.0450262 201.24838254 45.625 181.3125 C60.4000057 158.94091117 66.80741598 133.7774932 62.28125 106.93359375 C57.25976525 82.66397353 42.62377149 59.4684254 21.8046875 45.71875 C-21.11399364 19.41760836 -71.96000977 26.38897864 -106 64 Z " fill="#000000" transform="translate(288,163)"/>
</svg>
