<svg xmlns="http://www.w3.org/2000/svg" width="512.000000pt" height="512.000000pt" viewBox="0 0 512.000000 512.000000" preserveAspectRatio="xMidYMid meet"><g transform="translate(0.000000,512.000000) scale(0.100000,-0.100000)" fill="#000000" stroke="none"><path d="M1240 3106 l0 -2016 -405 0 -405 0 0 -252 c0 -281 9 -387 39 -474 61 -173 235 -321 415 -353 83 -15 3269 -15 3352 0 88 16 210 78 273 141 105 103 155 205 172 352 14 122 12 4606 -2 4606 -6 0 -159 -85 -340 -189 l-328 -190 -243 141 c-134 77 -252 145 -264 150 -17 8 -62 -14 -275 -138 -140 -81 -259 -147 -265 -147 -6 0 -121 63 -256 141 -134 78 -252 144 -260 147 -9 4 -119 -55 -269 -141 -140 -81 -259 -147 -264 -147 -8 0 -510 285 -642 365 l-33 20 0 -2016z m2543 1410 c120 -69 223 -126 228 -126 6 0 84 43 174 95 90 52 171 98 179 101 14 6 16 -191 16 -2042 l0 -2049 -24 -50 c-88 -190 -357 -189 -452 1 -17 35 -19 67 -22 342 l-3 302 -1169 0 -1170 0 0 1756 0 1756 33 -20 c86 -52 314 -182 330 -187 11 -5 99 41 270 139 140 80 259 146 266 146 6 0 125 -65 263 -145 139 -80 257 -145 263 -145 5 1 125 68 265 149 l255 148 40 -23 c22 -12 138 -79 258 -148z m-201 -3903 c4 -162 7 -184 31 -245 l26 -68 -1344 0 c-1319 0 -1345 0 -1398 20 -62 23 -108 67 -136 130 -18 39 -21 66 -21 193 l0 147 1419 0 1419 0 4 -177z"></path><path d="M1844 3757 c-2 -7 -3 -76 -2 -152 l3 -140 1118 -3 1117 -2 0 155 0 155 -1115 0 c-905 0 -1117 -2 -1121 -13z"></path><path d="M1840 3040 l0 -150 1120 0 1120 0 0 150 0 150 -1120 0 -1120 0 0 -150z"></path><path d="M1840 2470 l0 -150 560 0 560 0 0 150 0 150 -560 0 -560 0 0 -150z"></path></g></svg>